<svg xmlns="http://www.w3.org/2000/svg" title="Rick and Morty SVG" role="img" viewBox="0 0 24 24" width="50px" height="50px"><path d="M21,15.5c0-0.827-0.407-1.555-1.026-2.01C19.71,9.311,16.246,6,12,6s-7.71,3.311-7.974,7.49C3.407,13.945,3,14.673,3,15.5 c0,1.227,0.886,2.243,2.052,2.455C6.429,20.369,9.022,22,12,22s5.571-1.631,6.948-4.045C20.114,17.743,21,16.727,21,15.5z" opacity=".35"/><path d="M13,20c-0.256,0-0.512-0.098-0.707-0.293c-0.162-0.162-0.424-0.162-0.586,0c-0.391,0.391-1.023,0.391-1.414,0 s-0.391-1.023,0-1.414c0.912-0.912,2.502-0.912,3.414,0c0.391,0.391,0.391,1.023,0,1.414C13.512,19.902,13.256,20,13,20z"/><path d="M4.026,13.49C4.29,9.311,7.754,6,12,6s7.71,3.311,7.974,7.49c0.194,0.142,0.357,0.319,0.503,0.509 C20.81,13.06,21,12.053,21,11c0-4.971-4.029-9-9-9C8.003,2,4.619,4.608,3.445,8.213C2.561,9.035,2,10.198,2,11.5 c0,1.182,0.46,2.251,1.206,3.051C3.384,14.129,3.661,13.758,4.026,13.49z"/><circle cx="16" cy="14" r="3"/><circle cx="8" cy="14" r="3"/></svg>