<svg fill="#dddddd" xmlns="http://www.w3.org/2000/svg" title="Rick and Morty SVG" role="img" viewBox="0 0 50 50" width="200px" height="200px"><path d="M 15.552734 0.91796875 C 15.35238 0.91394043 15.166875 0.94 15 1 C 16 6 15 11.660156 15 11.660156 C 15 11.660156 9 9.97 4 9 C 4 15.76 10 20.349609 10 20.349609 C 10 20.349609 4 21.320703 1 24.220703 C 5 27.110703 8 27.110781 9 29.050781 C 6.18 31.790781 2 34 2 34 L 10 35.810547 C 10 35.810547 9 39.14 7 43 C 9.4983004 43 12.553101 42.337421 13.550781 42.105469 C 15.733632 46.781713 20.008463 50 25 50 C 29.981612 50 34.248739 46.793967 36.435547 42.132812 C 37.329783 42.395682 39.633857 43 42 43 C 41 40.1 40 35.810547 40 35.810547 C 40 35.810547 47.73 34.27 48 33 C 45 31.07 42 28.080078 42 28.080078 C 42 28.080078 47 25.83 49 21 C 44 21 40 20.349609 40 20.349609 C 40 20.349609 43 13.86 46 10 C 41 9.03 35 11.660156 35 11.660156 C 35 11.660156 34 5.83 34 1 C 31.33 0.04 25 7.7890625 25 7.7890625 C 25 7.7890625 18.558044 0.97839355 15.552734 0.91796875 z M 25 13 C 30.996448 13 36 18.73127 36 26 L 36 35 C 36 42.26873 30.996448 48 25 48 C 19.003552 48 14 42.26873 14 35 L 14 26 C 14 18.73127 19.003552 13 25 13 z M 16.960938 20.986328 A 1.0001 1.0001 0 0 0 16.648438 22.935547 C 16.648438 22.935547 17.347163 23.179727 18.615234 23.431641 C 17.078992 24.150073 16 25.701061 16 27.5 C 16 29.973437 18.026563 32 20.5 32 C 22.973437 32 25 29.973437 25 27.5 C 25 26.059309 24.301205 24.784294 23.238281 23.958984 C 23.794851 23.983639 24.375872 24 25 24 C 25.624128 24 26.205149 23.983639 26.761719 23.958984 C 25.698795 24.784294 25 26.059309 25 27.5 C 25 29.973437 27.026563 32 29.5 32 C 31.973437 32 34 29.973437 34 27.5 C 34 25.701061 32.921008 24.150073 31.384766 23.431641 C 32.652837 23.179727 33.351563 22.935547 33.351562 22.935547 A 1.0001 1.0001 0 0 0 33.009766 20.994141 A 1.0001 1.0001 0 0 0 32.648438 21.064453 C 32.648438 21.064455 30.207992 22 25 22 C 19.792008 22 17.351564 21.064453 17.351562 21.064453 A 1.0001 1.0001 0 0 0 16.960938 20.986328 z M 20.5 25 C 21.892557 25 23 26.107443 23 27.5 C 23 28.892557 21.892557 30 20.5 30 C 19.107443 30 18 28.892557 18 27.5 C 18 26.107443 19.107443 25 20.5 25 z M 29.5 25 C 30.892557 25 32 26.107443 32 27.5 C 32 28.892557 30.892557 30 29.5 30 C 28.107443 30 27 28.892557 27 27.5 C 27 26.107443 28.107443 25 29.5 25 z M 30 26 A 1 1 0 0 0 29 27 A 1 1 0 0 0 30 28 A 1 1 0 0 0 31 27 A 1 1 0 0 0 30 26 z M 20 27 A 1 1 0 0 0 19 28 A 1 1 0 0 0 20 29 A 1 1 0 0 0 21 28 A 1 1 0 0 0 20 27 z M 25.984375 31.986328 A 1.0001 1.0001 0 0 0 25 33 L 25 35.769531 C 25 35.879135 24.989599 35.875359 24.980469 35.939453 C 24.932339 35.929053 25.001882 35.936256 24.919922 35.898438 C 24.400224 35.658597 23.677734 35.033203 23.677734 35.033203 A 1.0001 1.0001 0 1 0 22.322266 36.503906 C 22.322266 36.503906 23.099776 37.262434 24.080078 37.714844 C 24.570229 37.941049 25.209317 38.188069 25.951172 37.845703 C 26.322099 37.67452 26.629658 37.328764 26.789062 36.960938 C 26.94847 36.593114 27 36.205942 27 35.769531 L 27 33 A 1.0001 1.0001 0 0 0 25.984375 31.986328 z M 25 39 C 20.833333 39 17.683594 40.050781 17.683594 40.050781 A 1.0005646 1.0005646 0 1 0 18.316406 41.949219 C 18.316406 41.949219 18.635479 41.856944 19.09375 41.738281 C 19.138645 41.942953 19.199054 42.163408 19.302734 42.400391 C 19.53459 42.930347 20.144345 43.4273 20.904297 43.716797 C 20.941327 43.974475 20.897997 44.046765 21.052734 44.400391 C 21.369608 45.124674 22.244048 46 23.5 46 C 24.755952 46 25.630392 45.124674 25.947266 44.400391 C 26.090452 44.073108 26.044156 44.017346 26.083984 43.767578 C 26.311229 43.712688 26.35213 43.772878 26.621094 43.619141 C 27.27272 43.246782 27.92074 42.381687 27.986328 41.191406 C 30.214657 41.468133 31.683594 41.949219 31.683594 41.949219 A 1.0005646 1.0005646 0 1 0 32.316406 40.050781 C 32.316406 40.050781 29.166667 39 25 39 z M 25 41 C 25.344378 41 25.670891 41.015351 25.998047 41.029297 C 25.991861 41.703604 25.8138 41.775206 25.628906 41.880859 C 25.440748 41.988378 25.25 42 25.25 42 A 1.0001 1.0001 0 0 0 24.25 43 C 24.25 43 24.23586 43.323893 24.115234 43.599609 C 23.994608 43.875326 23.994048 44 23.5 44 C 23.005952 44 23.005392 43.875326 22.884766 43.599609 C 22.76414 43.323893 22.75 43 22.75 43 A 1.0001 1.0001 0 0 0 21.75 42 C 21.255952 42 21.255392 41.875326 21.134766 41.599609 C 21.093808 41.505992 21.078613 41.416333 21.058594 41.326172 C 22.148345 41.148082 23.492811 41 25 41 z"/></svg>