<svg xmlns="http://www.w3.org/2000/svg" title="Rick and Morty SVG" role="img" viewBox="0 0 24 24" width="50px" height="50px"><path d="M22.721,14.164l-1.844-1.467c-0.467-0.372-0.507-1.068-0.085-1.49l0.959-0.959	c0.55-0.55,0.29-1.489-0.465-1.677L19.97,8.243c-0.536-0.134-0.862-0.677-0.728-1.213l0.447-1.787C19.847,4.611,19.37,4,18.719,4	h-1.695c-0.562,0-1.013-0.462-1-1.024l0.023-0.945c0.02-0.83-0.921-1.321-1.591-0.831l-1.866,1.366c-0.352,0.258-0.83,0.258-1.182,0	L9.543,1.201c-0.669-0.49-1.61,0.001-1.591,0.831l0.023,0.945C7.989,3.538,7.537,4,6.976,4H5.281C4.63,4,4.153,4.611,4.311,5.243	L4.757,7.03C4.891,7.566,4.566,8.109,4.03,8.243L2.713,8.572C1.959,8.76,1.699,9.699,2.249,10.249l0.959,0.959	c0.422,0.422,0.383,1.118-0.085,1.49l-1.844,1.467c-0.585,0.465-0.472,1.384,0.208,1.693l0.455,0.645	c0.672,0.951,0.895,2.148,0.613,3.277l0,0c-0.209,0.835,0.685,1.512,1.432,1.085L9,18v2h6v-2l5.012,2.864	c0.747,0.427,1.641-0.25,1.432-1.085v0c-0.282-1.13-0.059-2.326,0.613-3.277l0.455-0.645C23.193,15.548,23.306,14.629,22.721,14.164	z" opacity=".35"/><path d="M18,14v-3c0-3.314-2.686-6-6-6s-6,2.686-6,6v3c-1.105,0-2,0.895-2,2c0,1.105,0.895,2,2,2c0.03,0,0.059-0.008,0.089-0.009	C6.562,20.832,9.025,23,12,23s5.438-2.168,5.911-5.009C17.941,17.992,17.97,18,18,18c1.105,0,2-0.895,2-2C20,14.895,19.105,14,18,14	z M14,20h-4c-0.552,0-1-0.448-1-1s0.448-1,1-1h4c0.552,0,1,0.448,1,1S14.552,20,14,20z M14,15c-1.105,0-2-0.895-2-2	c0,1.105-0.895,2-2,2s-2-0.895-2-2c0-0.299,0.07-0.58,0.187-0.834c-0.212-0.088-0.428-0.168-0.635-0.271	c-0.494-0.247-0.694-0.848-0.447-1.342c0.248-0.493,0.846-0.695,1.342-0.447c2.225,1.112,4.881,1.112,7.105,0	c0.496-0.248,1.095-0.046,1.342,0.447c0.247,0.494,0.046,1.095-0.447,1.342c-0.207,0.103-0.422,0.183-0.635,0.271	C15.93,12.42,16,12.701,16,13C16,14.105,15.105,15,14,15z"/></svg>